<?xml version="1.0" encoding="UTF-8"?>
<svg xmlns="http://www.w3.org/2000/svg" viewBox="0 0 512 512" width="512" height="512">
  <title>Notepad with Pencil Icon - Tip facing notepad</title>

  <!-- Notepad -->
  <rect x="48" y="80" rx="40" ry="40" width="304" height="384" fill="#c69500" opacity="0.12"/>
  <rect x="64" y="96" rx="36" ry="36" width="288" height="368" fill="none" stroke="#c69500" stroke-width="16"/>
  <rect x="64" y="96" width="288" height="72" rx="24" ry="24" fill="#c69500"/>

  <!-- Rings -->
  <g fill="none" stroke="#036b63" stroke-width="18" stroke-linecap="round">
    <path d="M120 68c-22 0-40 18-40 40" />
    <path d="M208 68c-22 0-40 18-40 40" />
    <path d="M296 68c-22 0-40 18-40 40" />
  </g>

  <!-- Notepad lines -->
  <g stroke="#036b63" stroke-linecap="round" stroke-width="16">
    <line x1="96" y1="208" x2="320" y2="208"/>
    <line x1="96" y1="252" x2="320" y2="252"/>
    <line x1="96" y1="296" x2="280" y2="296"/>
    <line x1="96" y1="340" x2="260" y2="340"/>
    <line x1="96" y1="384" x2="240" y2="384"/>
    <path d="M292 416h36v36" fill="none"/>
  </g>

  <!-- Pencil, tip facing notepad -->
  <g transform="rotate(-28 260 320)">
    <!-- Tip -->
    <polygon points="210,296 160,324 210,352" fill="#c69500"/>
    <!-- Body -->
    <rect x="210" y="296" width="220" height="56" rx="28" ry="28" fill="#036b63"/>
    <!-- Ferrule -->
    <rect x="430" y="296" width="26" height="56" fill="#c69500"/>
    <!-- Eraser -->
    <rect x="456" y="296" width="36" height="56" rx="10" ry="10" fill="#036b63"/>
  </g>
</svg>
